<svg width="40" height="40" viewBox="0 0 40 40" fill="none" xmlns="http://www.w3.org/2000/svg">
<path d="M15 38.7501C14.7991 38.7481 14.6013 38.7 14.4219 38.6094C14.1839 38.481 13.9933 38.2798 13.878 38.0351C13.7627 37.7905 13.7288 37.5154 13.7813 37.2501L16.0625 25.7969L7.06254 22.4219C6.87024 22.3473 6.6988 22.2274 6.56279 22.0723C6.42677 21.9173 6.3302 21.7317 6.28129 21.5313C6.23374 21.3302 6.23744 21.1204 6.29204 20.9211C6.34664 20.7219 6.45039 20.5395 6.59379 20.3907L24.0938 1.64069C24.2806 1.44926 24.5239 1.32279 24.7879 1.27987C25.0519 1.23695 25.3227 1.27985 25.5605 1.40225C25.7983 1.52466 25.9906 1.72012 26.1091 1.95991C26.2276 2.1997 26.266 2.47117 26.2188 2.73444L23.9375 14.2032L32.9375 17.5782C33.1308 17.6483 33.3034 17.7656 33.4398 17.9194C33.5762 18.0732 33.672 18.2586 33.7186 18.4589C33.7652 18.6591 33.761 18.8678 33.7064 19.066C33.6519 19.2642 33.5487 19.4456 33.4063 19.5938L15.9063 38.3438C15.7928 38.4721 15.6533 38.5748 15.497 38.6448C15.3407 38.7149 15.1713 38.7508 15 38.7501ZM9.68754 20.7344L17.9375 23.8282C18.2144 23.9305 18.4454 24.1286 18.5887 24.3866C18.732 24.6446 18.7782 24.9454 18.7188 25.2344L17.0938 33.4219L30.3125 19.2657L22.0625 16.1719C21.7825 16.0693 21.5491 15.8688 21.4055 15.6074C21.2619 15.346 21.2178 15.0415 21.2813 14.7501L22.9063 6.56256L9.68754 20.7344Z" fill="#222222"/>
</svg>
